<svg xmlns="http://www.w3.org/2000/svg" xmlns:xlink="http://www.w3.org/1999/xlink" viewBox="0,0,256,256" width="48px" height="48px" fill-rule="nonzero"><g fill="#fafafa" fill-rule="nonzero" stroke="none" stroke-width="1" stroke-linecap="butt" stroke-linejoin="miter" stroke-miterlimit="10" stroke-dasharray="" stroke-dashoffset="0" font-family="none" font-weight="none" font-size="none" text-anchor="none" style="mix-blend-mode: normal"><g transform="scale(10.66667,10.66667)"><path d="M13,2c-3.71875,0 -4.68359,2.82813 -5.00781,4.46875c0.44531,-0.19141 1.54297,-0.46875 2.00781,-0.46875h0.01953c1.14453,0.00781 1.5,0.33203 1.73047,1.39063c0.16797,0.77734 0.25391,1.98828 0.25,2.60938c-0.00391,1.35938 -0.33203,2.29688 -0.57422,2.92578l-0.07812,0.20313c-0.05859,0.16797 -0.12891,0.32422 -0.19141,0.46875c-0.0625,0.15234 -0.11719,0.28516 -0.15625,0.40234c0.24219,0.05469 0.43359,0.13281 0.5625,0.1875l0.07422,0.03516c0.02344,0.01172 0.04688,0.01953 0.06641,0.03516c0.42578,0.25781 0.29688,0.85156 0.29688,1.32031c0,0.39063 0.01172,1.94531 0,3.42578c0.04297,0.64063 0.20703,1.17969 0.34766,1.57422c0.20703,0.55469 0.67188,1.37891 1.65234,1.42188c0.77344,0.03516 1.89063,-0.37109 2,-1.99609v-4c0.07422,-1.33594 1.60547,-1.86719 2,-2.16016c-0.05469,-0.07422 -0.26562,-0.72656 -0.48828,-1.07422l-0.04297,-0.08203c-0.03125,-0.07812 -0.11328,-0.21875 -0.21484,-0.40625c-0.58984,-1.07031 -1.82422,-3.81641 -0.98047,-5.22266c0.36719,-0.61719 0.72656,-0.97266 1.72656,-1.05859c-0.40625,-1.16016 -1.53125,-3.94141 -5,-4zM6.4375,2c-1.87109,0.07031 -4.4375,1.23047 -4.4375,5.01172c0,2.5625 1.74219,9.98828 4.49219,9.98828c0.125,0 0.25,-0.04297 0.37891,-0.10937c-0.24219,-0.21094 -0.41797,-0.48437 -0.44141,-0.84375c-0.04297,-0.72656 0.48438,-1.23828 1.62109,-1.52734c0.05469,-0.00781 0.34375,-0.09375 0.98047,-0.45312c-0.33594,-0.14453 -0.6875,-0.33984 -0.97656,-0.64062c-0.79297,-0.82812 -1.19531,-1.98828 -1.04688,-3.03125c0.14063,-1.01562 0.05859,-2.01172 0.01563,-2.54297l-0.00391,-0.05078l-0.01172,-0.17578l-0.02344,-0.36719l0.03125,-0.98437c0.32422,-1.66406 1.00391,-2.95312 1.98438,-3.84375c-0.74219,-0.24219 -1.67578,-0.46094 -2.5625,-0.42969zM16.93359,2.00391c-0.19141,0.00391 -0.37109,0.01953 -0.54687,0.03906c1.00391,0.69922 1.92578,1.82813 2.55469,3.62891l0.04297,1.375c0.00391,0.04688 0.01172,0.09375 0.01953,0.14063c0.03125,0.17188 0.07031,0.40625 0.03906,0.6875c-0.03906,0.32031 -0.07812,0.64844 -0.08984,0.97656c-0.00781,0.32422 0.03516,0.64063 0.08203,0.97656c0.08594,0.59766 0.03906,1.20313 -0.14844,1.85156l-0.29297,1.00781c0.07813,0.17188 0.15234,0.34766 0.22656,0.53125c0.01563,0.04688 0.03125,0.08203 0.04297,0.11328l0.32813,0.45313c1.76563,-1.55469 2.80859,-4.80859 2.80859,-8.16016c0,-0.64844 -0.17578,-1.14844 -0.40234,-1.4375c-1.33984,-1.71484 -3.19531,-2.20703 -4.66406,-2.18359zM10,7c-0.28125,0 -1.25,0.23047 -1.61719,0.38672l-0.35937,0.15234c-0.00781,0.00781 -0.01562,0.01563 -0.01953,0.02344c0.00391,0.05469 0.01172,0.12109 0.01953,0.20313c0.04297,0.57422 0.12891,1.64063 -0.02734,2.76953c-0.10547,0.74219 0.19531,1.58594 0.78516,2.19922c0.33594,0.35156 0.9375,0.58203 1.375,0.67969c0.02734,-0.07031 0.05078,-0.12891 0.08203,-0.20703c0.05469,-0.13281 0.11719,-0.27344 0.17578,-0.42969l0.07813,-0.21094c0.17578,-0.45703 0.50391,-1.3125 0.50781,-2.57031c0.00391,-0.41406 -0.04297,-1.16797 -0.12891,-1.8125c-0.01172,0.01563 -0.01953,0.01563 -0.02734,0.03516c-0.14844,0.14844 -0.37891,0.28125 -0.63281,0.24219c-0.41406,-0.06641 -0.73047,-0.57031 -0.71094,-0.75781c0.02344,-0.18359 0.37891,-0.28125 0.79297,-0.21484c0.14063,0.02344 0.27344,0.06641 0.38281,0.11328c0.03906,0.03125 0.07031,0.05078 0.10547,0.07422c-0.00391,-0.02344 -0.00391,-0.05078 -0.01172,-0.07422c-0.09375,-0.44141 -0.17187,-0.52344 -0.17578,-0.52734c-0.00391,-0.00391 -0.10937,-0.07031 -0.59375,-0.07422zM17.98438,7.01172c-0.48437,0.05859 -0.62109,0.1875 -0.79687,0.47266c0.33984,0 0.58594,0.11328 0.61328,0.32422c0.02734,0.17969 -0.125,0.35156 -0.19141,0.41797c-0.14062,0.13281 -0.31641,0.22266 -0.49219,0.24219c-0.03125,0.00781 -0.0625,0.00781 -0.09766,0.00781c-0.00781,0 -0.01172,-0.00391 -0.01953,-0.00391c0.05859,0.82422 0.42969,1.9375 0.92578,2.92969c0.13672,-0.47656 0.19141,-0.94141 0.12109,-1.43359c-0.05078,-0.36328 -0.10547,-0.73828 -0.09375,-1.14844c0.01563,-0.37109 0.05469,-0.71875 0.09375,-1.05859c0.03125,-0.26172 -0.07031,-0.50391 -0.0625,-0.75zM20.17969,14.53125c-0.07812,-0.01172 -0.1875,-0.00391 -0.32031,0.02344c-0.62891,0.12891 -1.04687,0.16406 -1.35547,0.14453c-0.10937,0.07422 -0.22266,0.14453 -0.36328,0.22266c-0.5625,0.30859 -1.0625,0.62891 -1.12891,1.07813v0.58203c0.66016,0.03125 1.54297,-0.37891 2.05078,-0.61328c0.95703,-0.44141 1.67578,-1.36328 1.11719,-1.4375zM9.83594,14.76172c-0.55078,0.32813 -1.17187,0.65234 -1.58594,0.73828c-1.46875,0.39063 -0.55859,0.84766 -0.03906,0.89844c0.55469,0.13672 1.91406,0.44531 2.78906,-0.26953c0,0 0,0 0,-0.00391v-0.54687c0,-0.10547 0.00391,-0.21094 0.01172,-0.32422c0,-0.05859 0.00391,-0.13672 0.00391,-0.20703c-0.06641,-0.02734 -0.14844,-0.05078 -0.23828,-0.07422z"></path></g></g></svg>